<svg xmlns="http://www.w3.org/2000/svg" style="display:none">
  <!-- Логотипа тут навмисно немає: він підключається файлами з assets/logo/*.svg
       через <img>, а не спрайтом. Тут живуть лише інтерфейсні іконки. -->

  <symbol id="icon-close" viewBox="0 0 24 24" fill="none" stroke="currentColor" stroke-width="1.5" stroke-linecap="round">
    <path d="M6 6l12 12M18 6 6 18"/>
  </symbol>

  <symbol id="icon-phone" viewBox="0 0 24 24" fill="none" stroke="currentColor" stroke-width="1.5" stroke-linecap="round" stroke-linejoin="round">
    <path d="M6.5 3h-.9A2.6 2.6 0 0 0 3 5.6C3 14.1 9.9 21 18.4 21a2.6 2.6 0 0 0 2.6-2.6v-.9a1 1 0 0 0-.7-.95l-3.6-1.2a1 1 0 0 0-1.1.33l-.9 1.12a13.6 13.6 0 0 1-5.5-5.5l1.12-.9a1 1 0 0 0 .33-1.1L9.45 5.7a1 1 0 0 0-.95-.7Z"/>
  </symbol>

  <symbol id="icon-pin" viewBox="0 0 24 24" fill="none" stroke="currentColor" stroke-width="1.5" stroke-linecap="round" stroke-linejoin="round">
    <path d="M12 21s7-5.6 7-11a7 7 0 1 0-14 0c0 5.4 7 11 7 11Z"/>
    <circle cx="12" cy="10" r="2.6"/>
  </symbol>

  <symbol id="icon-user" viewBox="0 0 24 24" fill="none" stroke="currentColor" stroke-width="1.5" stroke-linecap="round" stroke-linejoin="round">
    <circle cx="12" cy="8" r="4"/>
    <path d="M4 21c0-4 3.6-6.5 8-6.5s8 2.5 8 6.5"/>
  </symbol>

  <symbol id="icon-arrow-right" viewBox="0 0 24 24" fill="none" stroke="currentColor" stroke-width="1.5" stroke-linecap="round" stroke-linejoin="round">
    <path d="M4 12h16M14 6l6 6-6 6"/>
  </symbol>

  <symbol id="icon-calendar" viewBox="0 0 24 24" fill="none" stroke="currentColor" stroke-width="1.5" stroke-linecap="round" stroke-linejoin="round">
    <rect x="3" y="5" width="18" height="16" rx="2"/>
    <path d="M3 10h18M8 3v4M16 3v4"/>
  </symbol>

  <symbol id="icon-instagram" viewBox="0 0 24 24" fill="none" stroke="currentColor" stroke-width="1.5">
    <rect x="3" y="3" width="18" height="18" rx="5"/>
    <circle cx="12" cy="12" r="4"/>
    <circle cx="17.2" cy="6.8" r="1.1" fill="currentColor" stroke="none"/>
  </symbol>

  <symbol id="icon-facebook" viewBox="0 0 24 24" fill="none" stroke="currentColor" stroke-width="1.5" stroke-linecap="round" stroke-linejoin="round">
    <path d="M14.5 21v-8h2.7l.5-3.2h-3.2V7.7c0-.93.3-1.56 1.6-1.56h1.7V3.26A22 22 0 0 0 15.3 3c-2.5 0-4.2 1.5-4.2 4.3v2.5H8.3V13h2.8v8"/>
  </symbol>
</svg>
